#N canvas 0 94 1710 1069 12;
#X obj 236 202 noise~;
#X obj 238 305 *~;
#X obj 237 359 dac~;
#X floatatom 294 283 5 0 0 0 - - - 0;
#X obj 364 207 vsl 19 162 0 1 0 0 empty empty empty 0 -9 0 12 #c6feff #000000 #000000 0 1;
#X obj 459 202 noise~;
#X obj 461 305 *~;
#X obj 460 359 dac~;
#X floatatom 517 283 5 0 0 0 - - - 0;
#X obj 587 207 vsl 19 162 0 1 0 0 empty empty empty 0 -9 0 12 #c6feff #000000 #000000 0 1;
#X obj 460 252 bp~ 1000 2;
#X text 493 161 Ì†ΩÌ∫óÌ†ΩÌ≤®Ì†ΩÌ∫óÌ†ΩÌ≤®Ì†ΩÌ∫óÌ†ΩÌ≤®;
#X text 286 163 Ì†ºÌºßÔ∏èÌ†ºÌºßÔ∏èÌ†ºÌºßÔ∏èÌ†ºÌºßÔ∏è;
#X obj 237 252 bp~ 500 5;
#X connect 0 0 13 0;
#X connect 1 0 2 1;
#X connect 1 0 2 0;
#X connect 3 0 1 1;
#X connect 4 0 3 0;
#X connect 5 0 10 0;
#X connect 6 0 7 1;
#X connect 6 0 7 0;
#X connect 8 0 6 1;
#X connect 9 0 8 0;
#X connect 10 0 6 0;
#X connect 13 0 1 0;
