#N canvas 1008 53 371 604 12;
#N canvas 878 44 811 616 piano 0;
#X obj 444 437 tgl 35 0 empty empty empty 0 -10 0 12 #faff00 #000000 #000000 0 1;
#X floatatom 492 453 5 0 0 0 - - - 0;
#X floatatom 264 512 5 0 0 0 - - - 0;
#N canvas 378 48 307 280 synth 0;
#X obj 35 39 inlet;
#X obj 83 38 inlet;
#X obj 131 38 inlet;
#X obj 37 155 *~;
#X text 24 17 pitch;
#X text 128 18 volume;
#X obj 37 187 outlet~;
#N canvas 58 47 319 281 line_freq 0;
#X obj 36 79 mtof;
#X floatatom 89 111 5 0 0 0 - - - 0;
#X floatatom 36 111 5 0 0 0 - - - 0;
#X obj 36 140 pack;
#X msg 36 175 \$1 \$2;
#X obj 36 210 line~;
#X obj 36 45 inlet;
#X obj 90 45 inlet;
#X obj 36 242 outlet~;
#X connect 0 0 2 0;
#X connect 1 0 3 1;
#X connect 2 0 3 0;
#X connect 3 0 4 0;
#X connect 4 0 5 0;
#X connect 5 0 8 0;
#X connect 6 0 0 0;
#X connect 7 0 1 0;
#X restore 36 80 pd line_freq;
#N canvas 54 358 450 300 wave 0;
#X obj 138 71 *~ 1.003;
#X obj 83 71 phasor~;
#X obj 139 98 phasor~;
#X obj 84 124 expr~ $v1 - 1;
#X obj 84 189 bob~;
#X floatatom 96 154 5 0 0 0 - - - 0;
#X obj 84 223 hip~ 5;
#X floatatom 148 155 5 0 0 0 - - - 0;
#X obj 84 253 outlet~;
#X obj 83 41 inlet~;
#X obj 158 41 inlet;
#X obj 222 41 inlet;
#X connect 0 0 2 0;
#X connect 1 0 3 0;
#X connect 2 0 3 0;
#X connect 3 0 4 0;
#X connect 4 0 6 0;
#X connect 5 0 4 1;
#X connect 6 0 8 0;
#X connect 7 0 4 2;
#X connect 9 0 1 0;
#X connect 9 0 0 0;
#X connect 10 0 5 0;
#X connect 11 0 7 0;
#X restore 36 118 pd wave;
#N canvas 686 48 321 280 amplitude_envelop 0;
#X obj 57 56 inlet;
#X obj 149 54 inlet;
#X obj 86 100 hsl 162 19 0 127 0 0 empty empty empty -2 -10 0 12 #fcfcfc #000000 #000000 0 1;
#X obj 57 100 bng 19 250 50 0 empty empty empty 0 -10 0 12 #fcfcfc #000000 #000000;
#X obj 57 184 vline~;
#X obj 57 129 f;
#X msg 57 156 \$1 5 \, 0 200 20;
#X obj 57 220 outlet~;
#X connect 0 0 3 0;
#X connect 1 0 2 0;
#X connect 2 0 5 0;
#X connect 3 0 5 0;
#X connect 4 0 7 0;
#X connect 5 0 6 0;
#X connect 6 0 4 0;
#X restore 102 118 pd amplitude_envelop;
#X obj 191 41 inlet;
#X obj 244 40 inlet;
#X connect 0 0 7 0;
#X connect 0 0 9 0;
#X connect 1 0 7 1;
#X connect 2 0 9 1;
#X connect 3 0 6 0;
#X connect 7 0 8 0;
#X connect 8 0 3 0;
#X connect 9 0 3 1;
#X connect 10 0 8 1;
#X connect 11 0 8 2;
#X restore 264 542 pd synth;
#X obj 484 531 hsl 162 30 0 127 0 0 empty empty empty -2 -10 0 12 #c6ffc7 #000000 #000000 0 1;
#N canvas 759 184 450 278 (subpatch) 0;
#X array pitches 4 float 3;
#A 0 48.5715 41.4287 40.0001 30.7145;
#X coords 0 0 4 100 200 140 1 0 0;
#X restore 446 665 graph;
#X obj 263 727 array set pitches;
#X obj 264 485 array get pitches;
#X msg 262 670 60 64 67 72;
#X msg 262 694 48 50 55 57;
#X msg 262 641 60 62 65 67;
#X msg 262 616 71 69 67 64;
#N canvas 503 357 504 300 pacer 0;
#X obj 97 40 inlet;
#X obj 146 39 inlet;
#X obj 97 193 f;
#X obj 133 192 + 1;
#X msg 115 150 0;
#X obj 97 229 % 4;
#X text 93 15 start;
#X text 142 14 tempo controler;
#X obj 97 260 outlet;
#X obj 98 109 metro 150 1 msec;
#X connect 0 0 4 0;
#X connect 0 0 9 0;
#X connect 1 0 9 1;
#X connect 2 0 3 0;
#X connect 2 0 5 0;
#X connect 3 0 2 1;
#X connect 4 0 2 1;
#X connect 5 0 8 0;
#X connect 9 0 2 0;
#X restore 264 402 pd pacer;
#X floatatom 264 428 5 0 0 0 - - - 0;
#X text 490 435 tempo;
#X text 441 419 start;
#X obj 485 493 hsl 162 30 0 127 0 0 empty empty empty -2 -10 0 12 #ff8300 #000000 #000000 0 1;
#X text 602 537 Volume;
#X text 485 498 ms to reach target freq;
#X listbox 439 493 5 0 0 0 - - - 0;
#X obj 542 452 hradio 19 1 0 4 empty empty empty 0 -10 0 12 #c6feff #000000 #000000 0;
#X obj 264 571 outlet~;
#X obj 484 572 hsl 162 30 500 2000 0 0 empty empty empty -2 -10 0 12 #e3c6ff #000000 #000000 0 1;
#X text 496 577 Resonant/ cutoff freq;
#X floatatom 437 572 5 0 0 0 - - - 0;
#X floatatom 438 613 5 0 0 0 - - - 0;
#X obj 486 611 hsl 162 30 0 1 0 0 empty empty empty -2 -10 0 12 #c7c6ff #000000 #000000 0 1;
#X text 583 617 resonance;
#X floatatom 438 537 5 0 0 0 - - - 0;
#X connect 0 0 12 0;
#X connect 1 0 12 1;
#X connect 2 0 3 0;
#X connect 3 0 21 0;
#X connect 4 0 28 0;
#X connect 7 0 2 0;
#X connect 8 0 6 0;
#X connect 9 0 6 0;
#X connect 10 0 6 0;
#X connect 11 0 6 0;
#X connect 12 0 13 0;
#X connect 13 0 20 0;
#X connect 16 0 19 0;
#X connect 19 0 3 1;
#X connect 20 0 7 0;
#X connect 22 0 24 0;
#X connect 24 0 3 3;
#X connect 25 0 3 4;
#X connect 26 0 25 0;
#X connect 28 0 3 2;
#X coords 0 -1 1 1 300 500 1 400 400;
#X restore 33 22 pd piano;
#X obj 29 539 dac~;
#X connect 0 0 1 0;
#X connect 0 0 1 1;
