#N canvas 0 67 1710 1069 12;
#X obj 183 137 f;
#X obj 231 136 + 1;
#X obj 185 93 bng 19 250 50 0 empty empty empty 0 -10 0 12 #fcfcfc #000000 #000000;
#X floatatom 180 182 5 0 0 0 - - - 0;
#X obj 227 34 tgl 19 0 empty empty empty 0 -10 0 12 #fcfcfc #000000 #000000 0 1;
#X text 264 84 bpm: beats per minute in metro \, it is ms per beat;
#X obj 179 224 bng 19 250 50 0 empty empty empty 0 -10 0 12 #fcfcfc #000000 #000000;
#X floatatom 129 319 5 0 0 0 - - - 0;
#X obj 53 392 bng 19 250 50 0 empty empty empty 0 -10 0 12 #fcfcfc #000000 #000000;
#X obj 127 390 bng 19 250 50 0 empty empty empty 0 -10 0 12 #fcfcfc #000000 #000000;
#X obj 181 391 bng 19 250 50 0 empty empty empty 0 -10 0 12 #fcfcfc #000000 #000000;
#X obj 238 390 bng 19 250 50 0 empty empty empty 0 -10 0 12 #fcfcfc #000000 #000000;
#X obj 297 391 bng 19 250 50 0 empty empty empty 0 -10 0 12 #fcfcfc #000000 #000000;
#X text 137 339 if statement;
#X obj 129 225 s sig;
#X obj 128 250 r sig;
#X obj 361 390 bng 19 250 50 0 empty empty empty 0 -10 0 12 #fcfcfc #000000 #000000;
#X obj 414 390 bng 19 250 50 0 empty empty empty 0 -10 0 12 #fcfcfc #000000 #000000;
#X obj 474 393 bng 19 250 50 0 empty empty empty 0 -10 0 12 #fcfcfc #000000 #000000;
#X obj 47 436 spigot;
#X obj 82 389 tgl 19 0 empty empty empty 0 -10 0 12 #00ff04 #000000 #000000 0 1;
#X obj 113 437 spigot;
#X obj 148 390 tgl 19 0 empty empty empty 0 -10 0 12 #9c00ff #000000 #000000 0 1;
#X obj 168 438 spigot;
#X obj 203 391 tgl 19 0 empty empty empty 0 -10 0 12 #00ff04 #000000 #000000 0 1;
#X obj 228 438 spigot;
#X obj 263 391 tgl 19 0 empty empty empty 0 -10 0 12 #9c00ff #000000 #000000 0 1;
#X obj 289 438 spigot;
#X obj 324 391 tgl 19 0 empty empty empty 0 -10 0 12 #00ff04 #000000 #000000 0 1;
#X obj 354 437 spigot;
#X obj 389 390 tgl 19 0 empty empty empty 0 -10 0 12 #00ff04 #000000 #000000 0 1;
#X obj 405 436 spigot;
#X obj 440 389 tgl 19 0 empty empty empty 0 -10 0 12 #9c00ff #000000 #000000 0 1;
#X obj 467 437 spigot;
#X obj 502 390 tgl 19 0 empty empty empty 0 -10 0 12 #00ff04 #000000 #000000 0 1;
#X obj 65 528 bng 19 250 50 0 empty empty empty 0 -10 0 12 #fcfcfc #000000 #000000;
#X obj 129 524 bng 19 250 50 0 empty empty empty 0 -10 0 12 #fcfcfc #000000 #000000;
#X obj 185 521 bng 19 250 50 0 empty empty empty 0 -10 0 12 #fcfcfc #000000 #000000;
#X obj 248 519 bng 19 250 50 0 empty empty empty 0 -10 0 12 #fcfcfc #000000 #000000;
#X obj 306 516 bng 19 250 50 0 empty empty empty 0 -10 0 12 #fcfcfc #000000 #000000;
#X obj 369 518 bng 19 250 50 0 empty empty empty 0 -10 0 12 #fcfcfc #000000 #000000;
#X obj 422 516 bng 19 250 50 0 empty empty empty 0 -10 0 12 #fcfcfc #000000 #000000;
#X obj 227 58 metro 200;
#X obj 485 515 bng 19 250 50 0 empty empty empty 0 -10 0 12 #fcfcfc #000000 #000000;
#X obj 130 355 select 0 1 2 3 4 5 6;
#X obj 129 284 % 8;
#X msg 368 563 60;
#X msg 127 569 58;
#X msg 420 564 46;
#X msg 483 563 46;
#X msg 188 561 60;
#X msg 308 562 54;
#X msg 64 569 53;
#X msg 248 563 53;
#X obj 276 661 t f b;
#X obj 275 699 mtof;
#X obj 230 848 *~;
#X obj 319 947 *~, f 5;
#X obj 257 894 vsl 19 162 0 1 0 0 empty empty empty 0 -9 0 12 #00faff #000000 #000000 0 1;
#X obj 312 1000 dac~;
#X obj 551 723 line~;
#X obj 568 637 bng 19 250 50 0 empty empty empty 0 -10 0 12 #fcfcfc #000000 #000000;
#X floatatom 709 632 5 0 0 0 - - - 0;
#X obj 228 792 phasor~;
#X obj 273 744 t f f;
#X obj 314 791 osc~;
#X obj 310 851 *~;
#X obj 301 890 +~;
#X obj 470 995 line~;
#X obj 545 914 del 10;
#X obj 494 901 bng 19 250 50 0 empty empty empty 0 -10 0 12 #fcfcfc #000000 #000000;
#X floatatom 608 891 5 0 0 0 - - - 0;
#X obj 545 942 pack 0 30;
#X msg 472 939 1 5;
#X obj 469 670 spigot;
#X obj 503 641 tgl 19 0 empty empty empty 0 -10 0 12 #ffc7c6 #000000 #000000 0 1;
#X obj 436 895 spigot;
#X obj 470 866 tgl 19 0 empty empty empty 0 -10 0 12 #fcfcfc #000000 #000000 0 1;
#X obj 488 840 bng 19 250 50 0 empty empty empty 0 -10 0 12 #fcfcfc #000000 #000000;
#X msg 546 675 1 100;
#X obj 619 678 pack 0 1000;
#X obj 619 650 del 1000;
#X obj 736 746 t f b;
#X obj 792 766 del 10;
#X obj 711 801 vline~;
#X obj 713 839 *~ 1;
#X obj 714 878 +~ 0;
#X obj 800 817 spigot;
#X obj 810 845 bng 19 250 50 0 empty empty empty 0 -10 0 12 #fcfcfc #000000 #000000;
#X obj 859 795 tgl 19 0 empty empty empty 0 -10 0 12 #faff00 #000000 #000000 0 1;
#X obj 798 792 bng 19 250 50 0 empty empty empty 0 -10 0 12 #fcfcfc #000000 #000000;
#X msg 793 885 100 \, 1000 500;
#X obj 563 778 spigot;
#X obj 627 776 tgl 19 0 empty empty empty 0 -10 0 12 #e3c6ff #000000 #000000 0 1;
#X obj 487 811 del 30;
#X connect 0 0 3 0;
#X connect 0 0 1 0;
#X connect 1 0 0 1;
#X connect 2 0 0 0;
#X connect 3 0 6 0;
#X connect 3 0 14 0;
#X connect 4 0 42 0;
#X connect 7 0 44 0;
#X connect 8 0 19 0;
#X connect 9 0 21 0;
#X connect 10 0 23 0;
#X connect 11 0 25 0;
#X connect 12 0 27 0;
#X connect 15 0 45 0;
#X connect 16 0 29 0;
#X connect 17 0 31 0;
#X connect 18 0 33 0;
#X connect 19 0 35 0;
#X connect 20 0 19 1;
#X connect 21 0 36 0;
#X connect 22 0 21 1;
#X connect 23 0 37 0;
#X connect 24 0 23 1;
#X connect 25 0 38 0;
#X connect 26 0 25 1;
#X connect 27 0 39 0;
#X connect 28 0 27 1;
#X connect 29 0 40 0;
#X connect 30 0 29 1;
#X connect 31 0 41 0;
#X connect 32 0 31 1;
#X connect 33 0 43 0;
#X connect 34 0 33 1;
#X connect 35 0 52 0;
#X connect 36 0 47 0;
#X connect 37 0 50 0;
#X connect 38 0 53 0;
#X connect 39 0 51 0;
#X connect 40 0 46 0;
#X connect 41 0 48 0;
#X connect 42 0 2 0;
#X connect 43 0 49 0;
#X connect 44 0 8 0;
#X connect 44 1 9 0;
#X connect 44 2 10 0;
#X connect 44 3 11 0;
#X connect 44 4 12 0;
#X connect 44 5 16 0;
#X connect 44 6 17 0;
#X connect 44 7 18 0;
#X connect 45 0 7 0;
#X connect 46 0 54 0;
#X connect 47 0 54 0;
#X connect 48 0 54 0;
#X connect 49 0 54 0;
#X connect 50 0 54 0;
#X connect 51 0 54 0;
#X connect 52 0 54 0;
#X connect 53 0 54 0;
#X connect 54 0 55 0;
#X connect 54 1 74 0;
#X connect 54 1 76 0;
#X connect 55 0 64 0;
#X connect 56 0 67 0;
#X connect 57 0 59 0;
#X connect 57 0 59 1;
#X connect 58 0 57 1;
#X connect 60 0 66 1;
#X connect 61 0 79 0;
#X connect 61 0 81 0;
#X connect 61 0 92 0;
#X connect 62 0 80 1;
#X connect 63 0 56 0;
#X connect 64 0 63 0;
#X connect 64 1 82 0;
#X connect 65 0 66 0;
#X connect 66 0 67 1;
#X connect 67 0 57 0;
#X connect 68 0 56 1;
#X connect 69 0 72 0;
#X connect 70 0 73 0;
#X connect 70 0 69 0;
#X connect 71 0 72 1;
#X connect 72 0 68 0;
#X connect 73 0 68 0;
#X connect 74 0 61 0;
#X connect 75 0 74 1;
#X connect 76 0 70 0;
#X connect 77 0 76 1;
#X connect 78 0 77 0;
#X connect 79 0 60 0;
#X connect 80 0 60 0;
#X connect 81 0 80 0;
#X connect 82 0 84 0;
#X connect 82 1 83 0;
#X connect 83 0 90 0;
#X connect 84 0 85 0;
#X connect 85 0 86 0;
#X connect 86 0 65 0;
#X connect 87 0 88 0;
#X connect 88 0 91 0;
#X connect 89 0 87 1;
#X connect 90 0 87 0;
#X connect 91 0 84 1;
#X connect 92 0 94 0;
#X connect 93 0 92 1;
#X connect 94 0 78 0;
