#N canvas 0 111 1710 1069 12;
#X obj 49 208 openpanel;
#X obj 49 280 soundfiler;
#X floatatom 48 315 12 0 0 0 - - - 0;
#X obj 49 174 bng 19 250 50 0 empty empty empty 0 -10 0 12 #fcfcfc #000000 #000000;
#X text 140 315 file length;
#X text 78 174 load the sound file to array;
#N canvas 0 22 450 278 (subpatch) 0;
#X array original 563712 float 2;
#X coords 0 1 563712 -1 200 140 1 0 0;
#X restore 46 29 graph;
#X msg 48 350 range 0 \$1;
#X obj 89 383 hsl 162 19 0 563712 0 0 empty empty empty -2 -10 0 12 #e3c6ff #000000 #000000 0 1;
#X floatatom 60 413 16 0 0 0 - - - 0;
#X obj 50 469 hsl 162 19 0 563712 0 0 empty empty empty -2 -10 0 12 #c6feff #000000 #000000 0 1;
#X floatatom 47 501 16 0 0 0 - - - 0;
#X text 41 554 control the start & end of the audio play;
#X obj 49 584 bng 19 250 50 0 empty empty empty 0 -10 0 12 #faff00 #000000 #000000;
#X obj 48 641 f;
#X obj 115 627 expr abs($f2 - $f1) / 44.1;
#X floatatom 84 944 5 0 0 0 - - - 0;
#X obj 49 974 *~;
#X obj 44 1015 dac~;
#X obj 47 767 pack f f f;
#X floatatom 115 665 11 0 0 0 - - - 0;
#X msg 47 805 \$1 \, \$2 \$3;
#X msg 154 804 stop;
#X obj 46 885 vline~;
#X msg 213 802 \$1 100, f 10;
#X text 188 913 read from the array;
#X text 6 823 start \, end duration;
#X text 309 628 duration calculation;
#X obj 145 942 vsl 19 162 0 1 0 0 empty empty empty 0 -9 0 12 #feffc6 #000000 #000000 0 1;
#X text 53 1094 volume control;
#X text 156 823 stop btn;
#X text 212 822 enable audio scrubbing;
#X msg 50 243 read -resize \$1 original;
#X obj 48 915 tabread4~ original;
#X obj 48 616 metro;
#X obj 115 723 / 1;
#X obj 81 590 r mstart;
#X obj 305 587 r mend;
#X obj 60 444 s mstart;
#X obj 46 532 s mend;
#X obj 67 691 r mend;
#X obj 288 769 r mend;
#X obj 196 769 r mstart;
#X obj 497 330 tabread4~ original;
#X obj 604 286 +~ 200000;
#X obj 601 247 *~ 88200;
#X floatatom 597 156 5 0 0 0 - - - 0;
#X obj 541 16 vsl 19 162 0 1 0 0 empty empty empty 0 -9 0 12 #ffe3c6 #000000 #000000 0 1;
#X floatatom 376 91 5 0 0 0 - - - 0;
#X obj 376 143 * 441;
#X obj 377 224 line~;
#X floatatom 434 143 5 0 0 0 - - - 0;
#X obj 597 201 phasor~ 0.9;
#X obj 376 193 pack 0 100;
#X floatatom 537 360 5 0 0 0 - - - 0;
#X obj 502 390 *~;
#X obj 497 431 dac~;
#X obj 608 362 vsl 19 162 0 1 0 0 empty empty empty 0 -9 0 12 #feffc6 #000000 #000000 0 1;
#X obj 1223 718 openpanel;
#X msg 1224 756 open \$1;
#X obj 1225 816 readsf~;
#X obj 1241 907 dac~;
#X obj 1223 678 bng 19 250 50 0 empty empty empty 0 -10 0 12 #fcfcfc #000000 #000000;
#X msg 1183 755 1;
#X obj 622 850 tabread4~ original;
#X obj 729 806 +~ 200000;
#X obj 726 767 *~ 88200;
#X floatatom 722 676 5 0 0 0 - - - 0;
#X obj 665 538 vsl 19 162 0 1 0 0 empty empty empty 0 -9 0 12 #ffe3c6 #000000 #000000 0 1;
#X floatatom 502 612 5 0 0 0 - - - 0;
#X obj 501 663 * 441;
#X obj 502 744 line~;
#X floatatom 559 663 5 0 0 0 - - - 0;
#X obj 501 713 pack 0 100;
#X floatatom 662 880 5 0 0 0 - - - 0;
#X obj 627 910 *~;
#X obj 622 951 dac~;
#X obj 723 878 vsl 19 162 0 1 0 0 empty empty empty 0 -9 0 12 #feffc6 #000000 #000000 0 1;
#X obj 722 721 phasor~ 0.5;
#X obj 703 200 osc~ 0.1;
#X obj 828 720 osc~ 0.9;
#X obj 1078 716 openpanel;
#X msg 1079 754 open \$1;
#X obj 1080 814 readsf~;
#X obj 1096 905 dac~;
#X obj 1078 676 bng 19 250 50 0 empty empty empty 0 -10 0 12 #fcfcfc #000000 #000000;
#X msg 1038 753 1;
#X obj 1090 331 tabread4~ original;
#X obj 1197 287 +~ 200000;
#X obj 1194 248 *~ 88200;
#X floatatom 1190 157 5 0 0 0 - - - 0;
#X obj 1134 17 vsl 19 162 0 1 0 0 empty empty empty 0 -9 0 12 #ffe3c6 #000000 #000000 0 1;
#X floatatom 969 92 5 0 0 0 - - - 0;
#X obj 969 144 * 441;
#X obj 970 225 line~;
#X floatatom 1027 144 5 0 0 0 - - - 0;
#X obj 1190 202 phasor~ 0.9;
#X obj 969 194 pack 0 100;
#X floatatom 1130 361 5 0 0 0 - - - 0;
#X obj 1095 391 *~;
#X obj 1090 432 dac~;
#X obj 1201 363 vsl 19 162 0 1 0 0 empty empty empty 0 -9 0 12 #feffc6 #000000 #000000 0 1;
#X obj 1296 201 osc~ 0.1;
#X connect 0 0 32 0;
#X connect 1 0 2 0;
#X connect 2 0 7 0;
#X connect 3 0 0 0;
#X connect 7 0 8 0;
#X connect 7 0 10 0;
#X connect 8 0 9 0;
#X connect 9 0 38 0;
#X connect 10 0 11 0;
#X connect 11 0 39 0;
#X connect 13 0 34 0;
#X connect 14 0 19 0;
#X connect 15 0 20 0;
#X connect 16 0 17 1;
#X connect 17 0 18 0;
#X connect 17 0 18 1;
#X connect 19 0 21 0;
#X connect 20 0 35 0;
#X connect 21 0 23 0;
#X connect 22 0 23 0;
#X connect 23 0 33 0;
#X connect 24 0 23 0;
#X connect 28 0 16 0;
#X connect 32 0 1 0;
#X connect 33 0 17 0;
#X connect 34 0 14 0;
#X connect 35 0 19 2;
#X connect 35 0 34 1;
#X connect 36 0 14 1;
#X connect 36 0 15 0;
#X connect 37 0 15 1;
#X connect 40 0 19 1;
#X connect 41 0 24 0;
#X connect 42 0 24 0;
#X connect 43 0 55 0;
#X connect 44 0 43 0;
#X connect 45 0 44 0;
#X connect 46 0 52 0;
#X connect 46 0 79 0;
#X connect 47 0 46 0;
#X connect 48 0 49 0;
#X connect 49 0 51 0;
#X connect 49 0 53 0;
#X connect 50 0 43 0;
#X connect 52 0 45 0;
#X connect 53 0 50 0;
#X connect 54 0 55 1;
#X connect 55 0 56 0;
#X connect 55 0 56 1;
#X connect 57 0 54 0;
#X connect 58 0 59 0;
#X connect 59 0 60 0;
#X connect 60 0 61 0;
#X connect 60 0 61 1;
#X connect 62 0 58 0;
#X connect 63 0 60 0;
#X connect 64 0 75 0;
#X connect 65 0 64 0;
#X connect 66 0 65 0;
#X connect 67 0 78 0;
#X connect 67 0 80 0;
#X connect 68 0 67 0;
#X connect 69 0 70 0;
#X connect 70 0 72 0;
#X connect 70 0 73 0;
#X connect 71 0 64 0;
#X connect 73 0 71 0;
#X connect 74 0 75 1;
#X connect 75 0 76 0;
#X connect 75 0 76 1;
#X connect 77 0 74 0;
#X connect 78 0 66 0;
#X connect 81 0 82 0;
#X connect 82 0 83 0;
#X connect 83 0 84 0;
#X connect 83 0 84 1;
#X connect 85 0 81 0;
#X connect 86 0 83 0;
#X connect 87 0 99 0;
#X connect 88 0 87 0;
#X connect 89 0 88 0;
#X connect 90 0 96 0;
#X connect 90 0 102 0;
#X connect 91 0 90 0;
#X connect 92 0 93 0;
#X connect 93 0 95 0;
#X connect 93 0 97 0;
#X connect 94 0 87 0;
#X connect 96 0 89 0;
#X connect 97 0 94 0;
#X connect 98 0 99 1;
#X connect 99 0 100 0;
#X connect 99 0 100 1;
#X connect 101 0 98 0;
