#N canvas 0 -634 620 1069 12;
#X obj 103 236 openpanel;
#X obj 103 308 soundfiler;
#X floatatom 102 343 12 0 0 0 - - - 0;
#X obj 103 202 bng 19 250 50 0 empty empty empty 0 -10 0 12 #fcfcfc #000000 #000000;
#X text 194 343 file length;
#X text 132 202 load the sound file to array;
#N canvas 0 22 450 278 (subpatch) 0;
#X array player_i 563712 float 2;
#X coords 0 1 563712 -1 200 140 1 0 0;
#X restore 102 52 graph;
#X floatatom 95 875 5 0 0 0 - - - 0;
#X obj 60 905 *~;
#X obj 55 946 dac~;
#X obj 58 742 pack f f f;
#X msg 58 780 \$1 \, \$2 \$3;
#X obj 57 816 vline~;
#X text 199 844 read from the array;
#X obj 164 885 vsl 19 162 0 1 0 0 empty empty empty 0 -9 0 12 #feffc6 #000000 #000000 0 1;
#X text 87 1004 volume control;
#X obj 102 390 t b f;
#X obj 153 567 expr $f2 / $f1;
#X floatatom 154 603 15 0 0 0 - - - 0;
#X obj 100 470 expr pow(2 \, $f1);
#X floatatom 101 502 5 0 0 0 - - - 0;
#X floatatom 101 431 5 0 0 0 - - - 0;
#X obj 32 567 random;
#X obj 98 539 t f f;
#X obj 19 483 bng 19 250 50 0 empty empty empty 0 -10 0 12 #fcfcfc #000000 #000000;
#X obj 59 705 *;
#X obj 221 765 / 44.1;
#X obj 109 680 + 1;
#X obj 109 709 *;
#X text 15 701 start time;
#X text 136 698 end time;
#X text 154 764 duration;
#X obj 65 600 t f f;
#X obj 18 530 metro;
#X text 179 624 segment length;
#X text -1 -1 comment;
#X text 142 502 # of segments created;
#X text 3 593 randomly choosing segment;
#X obj 1185 250 openpanel;
#X obj 1185 322 soundfiler;
#X floatatom 1184 357 12 0 0 0 - - - 0;
#X obj 1185 216 bng 19 250 50 0 empty empty empty 0 -10 0 12 #fcfcfc #000000 #000000;
#X text 1276 357 file length;
#X text 1214 216 load the sound file to array;
#N canvas 0 22 450 278 (subpatch) 0;
#X array player_ii 445642 float 2;
#X coords 0 1 445642 -1 200 140 1 0 0;
#X restore 1184 66 graph;
#X obj 1132 1030 dac~;
#X obj 1140 756 pack f f f;
#X msg 1140 794 \$1 \, \$2 \$3;
#X obj 1139 830 vline~;
#X text 1280 862 read from the array;
#X obj 1184 404 t b f;
#X obj 1235 581 expr $f2 / $f1;
#X floatatom 1236 617 15 0 0 0 - - - 0;
#X obj 1182 484 expr pow(2 \, $f1);
#X floatatom 1183 516 5 0 0 0 - - - 0;
#X floatatom 1183 445 5 0 0 0 - - - 0;
#X obj 1114 581 random;
#X obj 1180 553 t f f;
#X obj 1101 497 bng 19 250 50 0 empty empty empty 0 -10 0 12 #fcfcfc #000000 #000000;
#X obj 1141 719 *;
#X obj 1303 779 / 44.1;
#X obj 1191 694 + 1;
#X obj 1191 723 *;
#X text 1097 715 start time;
#X text 1218 712 end time;
#X text 1236 778 duration;
#X obj 1147 614 t f f;
#X obj 1100 544 metro;
#X text 1261 638 segment length;
#X text 1224 516 # of segments created;
#X text 1085 607 randomly choosing segment;
#X msg 1186 285 read -resize \$1 player_ii;
#X obj 1139 863 tabread4~ player_ii;
#X obj 59 846 tabread4~ player_i;
#X msg 104 271 read -resize \$1 player_i;
#X obj 448 251 openpanel;
#X obj 448 323 soundfiler;
#X floatatom 447 358 12 0 0 0 - - - 0;
#X obj 448 217 bng 19 250 50 0 empty empty empty 0 -10 0 12 #fcfcfc #000000 #000000;
#X text 539 358 file length;
#X text 477 217 load the sound file to array;
#N canvas 0 22 450 278 (subpatch) 0;
#X array player_iii 445642 float 2;
#X coords 0 1 445642 -1 200 140 1 0 0;
#X restore 447 67 graph;
#X obj 405 920 *~;
#X obj 400 961 dac~;
#X obj 403 757 pack f f f;
#X msg 403 795 \$1 \, \$2 \$3;
#X obj 402 831 vline~;
#X text 544 859 read from the array;
#X obj 447 405 t b f;
#X obj 498 582 expr $f2 / $f1;
#X floatatom 499 618 15 0 0 0 - - - 0;
#X obj 445 485 expr pow(2 \, $f1);
#X floatatom 446 517 5 0 0 0 - - - 0;
#X floatatom 446 446 5 0 0 0 - - - 0;
#X obj 377 582 random;
#X obj 443 554 t f f;
#X obj 364 498 bng 19 250 50 0 empty empty empty 0 -10 0 12 #fcfcfc #000000 #000000;
#X obj 404 720 *;
#X obj 566 780 / 44.1;
#X obj 454 695 + 1;
#X obj 454 724 *;
#X text 360 716 start time;
#X text 481 713 end time;
#X text 499 779 duration;
#X obj 410 615 t f f;
#X obj 363 545 metro;
#X text 524 639 segment length;
#X text 487 517 # of segments created;
#X text 348 608 randomly choosing segment;
#X obj 404 861 tabread4~ player_iii;
#X msg 449 286 read -resize \$1 player_iii;
#X obj 490 976 +~ 1;
#X obj 490 940 osc~;
#X floatatom 540 940 5 0 0 0 - - - 0;
#X text 487 1031 tremolo;
#X obj 541 972 hsl 162 19 0 5 0 0 empty empty empty -2 -10 0 12 #c6feff #000000 #000000 0 1;
#X floatatom 559 1007 5 0 0 0 - - - 0;
#X obj 459 903 hsl 162 19 0 5 0 0 empty empty empty -2 -10 0 12 #c6ffc7 #000000 #000000 0 1;
#X obj 1181 989 *~ 0.3;
#X obj 1139 906 delwrite~ delay 300;
#X obj 1138 944 delread~ delay 200;
#X obj 490 1009 *~ 0.002;
#X connect 0 0 74 0;
#X connect 1 0 2 0;
#X connect 2 0 16 0;
#X connect 3 0 0 0;
#X connect 7 0 8 1;
#X connect 8 0 9 0;
#X connect 8 0 9 1;
#X connect 10 0 11 0;
#X connect 11 0 12 0;
#X connect 12 0 73 0;
#X connect 14 0 7 0;
#X connect 16 0 21 0;
#X connect 16 1 17 1;
#X connect 17 0 18 0;
#X connect 18 0 25 1;
#X connect 18 0 28 1;
#X connect 18 0 26 0;
#X connect 19 0 20 0;
#X connect 20 0 23 0;
#X connect 21 0 19 0;
#X connect 22 0 32 0;
#X connect 23 0 22 1;
#X connect 23 1 17 0;
#X connect 24 0 33 0;
#X connect 25 0 10 0;
#X connect 26 0 10 2;
#X connect 26 0 33 1;
#X connect 27 0 28 0;
#X connect 28 0 10 1;
#X connect 32 0 25 0;
#X connect 32 1 27 0;
#X connect 33 0 22 0;
#X connect 38 0 71 0;
#X connect 39 0 40 0;
#X connect 40 0 50 0;
#X connect 41 0 38 0;
#X connect 46 0 47 0;
#X connect 47 0 48 0;
#X connect 48 0 72 0;
#X connect 50 0 55 0;
#X connect 50 1 51 1;
#X connect 51 0 52 0;
#X connect 52 0 59 1;
#X connect 52 0 62 1;
#X connect 52 0 60 0;
#X connect 53 0 54 0;
#X connect 54 0 57 0;
#X connect 55 0 53 0;
#X connect 56 0 66 0;
#X connect 57 0 56 1;
#X connect 57 1 51 0;
#X connect 58 0 67 0;
#X connect 59 0 46 0;
#X connect 60 0 46 2;
#X connect 60 0 67 1;
#X connect 61 0 62 0;
#X connect 62 0 46 1;
#X connect 66 0 59 0;
#X connect 66 1 61 0;
#X connect 67 0 56 0;
#X connect 71 0 39 0;
#X connect 72 0 119 0;
#X connect 73 0 8 0;
#X connect 74 0 1 0;
#X connect 75 0 110 0;
#X connect 76 0 77 0;
#X connect 77 0 88 0;
#X connect 78 0 75 0;
#X connect 82 0 83 0;
#X connect 82 0 83 1;
#X connect 84 0 85 0;
#X connect 85 0 86 0;
#X connect 86 0 109 0;
#X connect 88 0 93 0;
#X connect 88 1 89 1;
#X connect 89 0 90 0;
#X connect 90 0 97 1;
#X connect 90 0 100 1;
#X connect 90 0 98 0;
#X connect 91 0 92 0;
#X connect 92 0 95 0;
#X connect 93 0 91 0;
#X connect 94 0 104 0;
#X connect 95 0 94 1;
#X connect 95 1 89 0;
#X connect 96 0 105 0;
#X connect 97 0 84 0;
#X connect 98 0 84 2;
#X connect 98 0 105 1;
#X connect 99 0 100 0;
#X connect 100 0 84 1;
#X connect 104 0 97 0;
#X connect 104 1 99 0;
#X connect 105 0 94 0;
#X connect 109 0 82 0;
#X connect 110 0 76 0;
#X connect 111 0 121 0;
#X connect 112 0 111 0;
#X connect 115 0 116 0;
#X connect 115 0 121 1;
#X connect 117 0 112 0;
#X connect 117 0 113 0;
#X connect 118 0 119 0;
#X connect 120 0 118 0;
#X connect 120 0 45 0;
#X connect 121 0 82 1;
